<svg width="16" height="16" viewBox="0 0 16 16" fill="none" xmlns="http://www.w3.org/2000/svg">
<path d="M3 1.5C3 1.22386 3.22386 1 3.5 1H10.2929C10.4255 1 10.5527 1.05268 10.6464 1.14645L12.8536 3.35355C12.9473 3.44732 13 3.57446 13 3.70711V6.2C12.6754 6.11 12.3407 6.05 12 6.02V4H10.5C10.2239 4 10 3.77614 10 3.5V2H4V13H6.02C6.05 13.3407 6.11 13.6754 6.2 14H3.5C3.22386 14 3 13.7761 3 13.5V1.5Z" fill="#3387C5"/>
<path d="M5.5 5H10.5V6H5.5V5Z" fill="#3387C5"/>
<path d="M5.5 7.5H8.5V8.5H5.5V7.5Z" fill="#ED8000"/>
<path d="M5.5 10H8.5V11H5.5V10Z" fill="#3387C5"/>
<path d="M11.5 16C13.9853 16 16 13.9853 16 11.5C16 9.01472 13.9853 7 11.5 7C9.01472 7 7 9.01472 7 11.5C7 13.9853 9.01472 16 11.5 16Z" fill="#ED8000"/>
<path d="M11 9V11.7071L12.6464 13.3536L13.3536 12.6464L12 11.2929V9H11Z" fill="white"/>
</svg>
